<?xml version="1.0" encoding="UTF-8"?>
<!DOCTYPE svg PUBLIC "-//W3C//DTD SVG 1.1//EN" "http://www.w3.org/Graphics/SVG/1.1/DTD/svg11.dtd">
<!-- Creator: CorelDRAW X7 -->
<svg xmlns="http://www.w3.org/2000/svg" xml:space="preserve" width="5in" height="1.97069in" version="1.1" style="shape-rendering:geometricPrecision; text-rendering:geometricPrecision; image-rendering:optimizeQuality; fill-rule:evenodd; clip-rule:evenodd"
viewBox="0 0 5000 1971"
 xmlns:xlink="http://www.w3.org/1999/xlink">
 <defs>
  <style type="text/css">
   <![CDATA[
    .fil0 {fill:#1E89CA}
    .fil1 {fill:#1E89CA;fill-rule:nonzero}
   ]]>
  </style>
 </defs>
 <g id="Layer_x0020_1">
  <metadata id="CorelCorpID_0Corel-Layer"/>
  <g id="_291079976">
   <g>
    <polygon class="fil0" points="2520,58 2720,1576 2861,556 4926,117 5000,0 4912,109 2833,373 "/>
    <polygon class="fil0" points="2480,58 2280,1576 2139,556 74,117 0,0 88,109 2167,373 "/>
   </g>
   <path class="fil1" d="M2187 1850c0,13 -4,23 -13,32 -9,10 -20,14 -33,14l-143 0 0 75 -48 0 0 -250 191 0c13,0 24,5 33,14 9,9 13,20 13,33l0 82zm-59 2c4,0 7,-2 10,-5 3,-3 4,-6 4,-10l0 -56c0,-4 -1,-8 -4,-11 -3,-3 -6,-4 -10,-4l-130 0 0 86 130 0zm321 -131c14,0 27,5 37,16 10,10 15,23 15,37l0 144c0,15 -5,27 -15,37 -10,11 -23,16 -37,16l-204 0 0 -250 204 0zm8 183l0 -115c0,-7 -3,-12 -7,-16 -5,-5 -10,-7 -16,-7l-145 0 0 160 145 0c6,0 11,-2 16,-7 4,-4 7,-9 7,-15zm287 67l-50 -75 -87 0 0 75 -48 0 0 -250 198 0c13,0 24,5 33,14 9,9 14,20 14,33l0 82c0,12 -4,22 -12,31 -8,9 -18,14 -30,15l-15 2 49 73 -52 0zm-137 -205l0 86 137 0c4,0 8,-2 11,-5 3,-3 4,-6 4,-10l0 -56c0,-4 -1,-8 -4,-11 -3,-3 -7,-4 -11,-4l-137 0zm254 -45l48 0 0 205 159 0 0 45 -207 0 0 -250z"/>
  </g>
 </g>
</svg>
